%TF.GenerationSoftware,KiCad,Pcbnew,9.0.6*%
%TF.CreationDate,2025-12-05T19:45:49-05:00*%
%TF.ProjectId,PCB - ELECTRO,50434220-2d20-4454-9c45-4354524f2e6b,rev?*%
%TF.SameCoordinates,Original*%
%TF.FileFunction,Drillmap*%
%TF.FilePolarity,Positive*%
%FSLAX45Y45*%
G04 Gerber Fmt 4.5, Leading zero omitted, Abs format (unit mm)*
G04 Created by KiCad (PCBNEW 9.0.6) date 2025-12-05 19:45:49*
%MOMM*%
%LPD*%
G01*
G04 APERTURE LIST*
%ADD10C,0.050000*%
%ADD11C,0.200000*%
G04 APERTURE END LIST*
D10*
X9200000Y-13450000D02*
G75*
G02*
X8900000Y-13450000I-150000J0D01*
G01*
X8900000Y-13450000D02*
G75*
G02*
X9200000Y-13450000I150000J0D01*
G01*
X19100000Y-7450000D02*
G75*
G02*
X18800000Y-7450000I-150000J0D01*
G01*
X18800000Y-7450000D02*
G75*
G02*
X19100000Y-7450000I150000J0D01*
G01*
X9200000Y-7450000D02*
G75*
G02*
X8900000Y-7450000I-150000J0D01*
G01*
X8900000Y-7450000D02*
G75*
G02*
X9200000Y-7450000I150000J0D01*
G01*
X8400000Y-6850000D02*
X19600000Y-6850000D01*
X19600000Y-14050000D01*
X8400000Y-14050000D01*
X8400000Y-6850000D01*
X19100000Y-13450000D02*
G75*
G02*
X18800000Y-13450000I-150000J0D01*
G01*
X18800000Y-13450000D02*
G75*
G02*
X19100000Y-13450000I150000J0D01*
G01*
D11*
X8658277Y-14363984D02*
X8658277Y-14163984D01*
X8658277Y-14163984D02*
X8705896Y-14163984D01*
X8705896Y-14163984D02*
X8734467Y-14173508D01*
X8734467Y-14173508D02*
X8753515Y-14192555D01*
X8753515Y-14192555D02*
X8763039Y-14211603D01*
X8763039Y-14211603D02*
X8772563Y-14249698D01*
X8772563Y-14249698D02*
X8772563Y-14278269D01*
X8772563Y-14278269D02*
X8763039Y-14316365D01*
X8763039Y-14316365D02*
X8753515Y-14335412D01*
X8753515Y-14335412D02*
X8734467Y-14354460D01*
X8734467Y-14354460D02*
X8705896Y-14363984D01*
X8705896Y-14363984D02*
X8658277Y-14363984D01*
X8858277Y-14363984D02*
X8858277Y-14230650D01*
X8858277Y-14268746D02*
X8867801Y-14249698D01*
X8867801Y-14249698D02*
X8877324Y-14240174D01*
X8877324Y-14240174D02*
X8896372Y-14230650D01*
X8896372Y-14230650D02*
X8915420Y-14230650D01*
X8982086Y-14363984D02*
X8982086Y-14230650D01*
X8982086Y-14163984D02*
X8972563Y-14173508D01*
X8972563Y-14173508D02*
X8982086Y-14183031D01*
X8982086Y-14183031D02*
X8991610Y-14173508D01*
X8991610Y-14173508D02*
X8982086Y-14163984D01*
X8982086Y-14163984D02*
X8982086Y-14183031D01*
X9105896Y-14363984D02*
X9086848Y-14354460D01*
X9086848Y-14354460D02*
X9077324Y-14335412D01*
X9077324Y-14335412D02*
X9077324Y-14163984D01*
X9210658Y-14363984D02*
X9191610Y-14354460D01*
X9191610Y-14354460D02*
X9182086Y-14335412D01*
X9182086Y-14335412D02*
X9182086Y-14163984D01*
X9439229Y-14363984D02*
X9439229Y-14163984D01*
X9439229Y-14163984D02*
X9505896Y-14306841D01*
X9505896Y-14306841D02*
X9572563Y-14163984D01*
X9572563Y-14163984D02*
X9572563Y-14363984D01*
X9753515Y-14363984D02*
X9753515Y-14259222D01*
X9753515Y-14259222D02*
X9743991Y-14240174D01*
X9743991Y-14240174D02*
X9724944Y-14230650D01*
X9724944Y-14230650D02*
X9686848Y-14230650D01*
X9686848Y-14230650D02*
X9667801Y-14240174D01*
X9753515Y-14354460D02*
X9734467Y-14363984D01*
X9734467Y-14363984D02*
X9686848Y-14363984D01*
X9686848Y-14363984D02*
X9667801Y-14354460D01*
X9667801Y-14354460D02*
X9658277Y-14335412D01*
X9658277Y-14335412D02*
X9658277Y-14316365D01*
X9658277Y-14316365D02*
X9667801Y-14297317D01*
X9667801Y-14297317D02*
X9686848Y-14287793D01*
X9686848Y-14287793D02*
X9734467Y-14287793D01*
X9734467Y-14287793D02*
X9753515Y-14278269D01*
X9848753Y-14230650D02*
X9848753Y-14430650D01*
X9848753Y-14240174D02*
X9867801Y-14230650D01*
X9867801Y-14230650D02*
X9905896Y-14230650D01*
X9905896Y-14230650D02*
X9924944Y-14240174D01*
X9924944Y-14240174D02*
X9934467Y-14249698D01*
X9934467Y-14249698D02*
X9943991Y-14268746D01*
X9943991Y-14268746D02*
X9943991Y-14325888D01*
X9943991Y-14325888D02*
X9934467Y-14344936D01*
X9934467Y-14344936D02*
X9924944Y-14354460D01*
X9924944Y-14354460D02*
X9905896Y-14363984D01*
X9905896Y-14363984D02*
X9867801Y-14363984D01*
X9867801Y-14363984D02*
X9848753Y-14354460D01*
X10029705Y-14344936D02*
X10039229Y-14354460D01*
X10039229Y-14354460D02*
X10029705Y-14363984D01*
X10029705Y-14363984D02*
X10020182Y-14354460D01*
X10020182Y-14354460D02*
X10029705Y-14344936D01*
X10029705Y-14344936D02*
X10029705Y-14363984D01*
X10029705Y-14240174D02*
X10039229Y-14249698D01*
X10039229Y-14249698D02*
X10029705Y-14259222D01*
X10029705Y-14259222D02*
X10020182Y-14249698D01*
X10020182Y-14249698D02*
X10029705Y-14240174D01*
X10029705Y-14240174D02*
X10029705Y-14259222D01*
M02*
