%TF.GenerationSoftware,KiCad,Pcbnew,9.0.6*%
%TF.CreationDate,2025-12-05T19:45:49-05:00*%
%TF.ProjectId,PCB - ELECTRO,50434220-2d20-4454-9c45-4354524f2e6b,rev?*%
%TF.SameCoordinates,Original*%
%TF.FileFunction,Drillmap*%
%TF.FilePolarity,Positive*%
%FSLAX45Y45*%
G04 Gerber Fmt 4.5, Leading zero omitted, Abs format (unit mm)*
G04 Created by KiCad (PCBNEW 9.0.6) date 2025-12-05 19:45:49*
%MOMM*%
%LPD*%
G01*
G04 APERTURE LIST*
%ADD10C,0.050000*%
%ADD11C,0.200000*%
%ADD12C,0.120000*%
G04 APERTURE END LIST*
D10*
X9200000Y-13450000D02*
G75*
G02*
X8900000Y-13450000I-150000J0D01*
G01*
X8900000Y-13450000D02*
G75*
G02*
X9200000Y-13450000I150000J0D01*
G01*
X19100000Y-7450000D02*
G75*
G02*
X18800000Y-7450000I-150000J0D01*
G01*
X18800000Y-7450000D02*
G75*
G02*
X19100000Y-7450000I150000J0D01*
G01*
X9200000Y-7450000D02*
G75*
G02*
X8900000Y-7450000I-150000J0D01*
G01*
X8900000Y-7450000D02*
G75*
G02*
X9200000Y-7450000I150000J0D01*
G01*
X8400000Y-6850000D02*
X19600000Y-6850000D01*
X19600000Y-14050000D01*
X8400000Y-14050000D01*
X8400000Y-6850000D01*
X19100000Y-13450000D02*
G75*
G02*
X18800000Y-13450000I-150000J0D01*
G01*
X18800000Y-13450000D02*
G75*
G02*
X19100000Y-13450000I150000J0D01*
G01*
D11*
D12*
X9715000Y-8690000D02*
X9835000Y-8810000D01*
X9835000Y-8690000D02*
X9715000Y-8810000D01*
X9715000Y-8940000D02*
X9835000Y-9060000D01*
X9835000Y-8940000D02*
X9715000Y-9060000D01*
X9715000Y-9190000D02*
X9835000Y-9310000D01*
X9835000Y-9190000D02*
X9715000Y-9310000D01*
X9715000Y-9440000D02*
X9835000Y-9560000D01*
X9835000Y-9440000D02*
X9715000Y-9560000D01*
X9715000Y-9690000D02*
X9835000Y-9810000D01*
X9835000Y-9690000D02*
X9715000Y-9810000D01*
X9715000Y-9940000D02*
X9835000Y-10060000D01*
X9835000Y-9940000D02*
X9715000Y-10060000D01*
X10015000Y-11565000D02*
X10135000Y-11685000D01*
X10135000Y-11565000D02*
X10015000Y-11685000D01*
X10040000Y-10740000D02*
X10160000Y-10860000D01*
X10160000Y-10740000D02*
X10040000Y-10860000D01*
X10565000Y-10440000D02*
X10685000Y-10560000D01*
X10685000Y-10440000D02*
X10565000Y-10560000D01*
X10565000Y-11040000D02*
X10685000Y-11160000D01*
X10685000Y-11040000D02*
X10565000Y-11160000D01*
X10565000Y-11265000D02*
X10685000Y-11385000D01*
X10685000Y-11265000D02*
X10565000Y-11385000D01*
X10565000Y-11865000D02*
X10685000Y-11985000D01*
X10685000Y-11865000D02*
X10565000Y-11985000D01*
X10765000Y-10740000D02*
X10885000Y-10860000D01*
X10885000Y-10740000D02*
X10765000Y-10860000D01*
X10765000Y-11565000D02*
X10885000Y-11685000D01*
X10885000Y-11565000D02*
X10765000Y-11685000D01*
X11090000Y-10840000D02*
X11210000Y-10960000D01*
X11210000Y-10840000D02*
X11090000Y-10960000D01*
X11090000Y-11440000D02*
X11210000Y-11560000D01*
X11210000Y-11440000D02*
X11090000Y-11560000D01*
X11865000Y-9490000D02*
X11985000Y-9610000D01*
X11985000Y-9490000D02*
X11865000Y-9610000D01*
X11865000Y-9890000D02*
X11985000Y-10010000D01*
X11985000Y-9890000D02*
X11865000Y-10010000D01*
X11865000Y-10290000D02*
X11985000Y-10410000D01*
X11985000Y-10290000D02*
X11865000Y-10410000D01*
X11890000Y-8340000D02*
X12010000Y-8460000D01*
X12010000Y-8340000D02*
X11890000Y-8460000D01*
X12090000Y-10840000D02*
X12210000Y-10960000D01*
X12210000Y-10840000D02*
X12090000Y-10960000D01*
X12090000Y-11440000D02*
X12210000Y-11560000D01*
X12210000Y-11440000D02*
X12090000Y-11560000D01*
X12490000Y-8671667D02*
X12610000Y-8791667D01*
X12610000Y-8671667D02*
X12490000Y-8791667D01*
X12490000Y-8925000D02*
X12610000Y-9045000D01*
X12610000Y-8925000D02*
X12490000Y-9045000D01*
X12490000Y-9178334D02*
X12610000Y-9298334D01*
X12610000Y-9178334D02*
X12490000Y-9298334D01*
X12490000Y-9431667D02*
X12610000Y-9551667D01*
X12610000Y-9431667D02*
X12490000Y-9551667D01*
X12490000Y-9685000D02*
X12610000Y-9805000D01*
X12610000Y-9685000D02*
X12490000Y-9805000D01*
X12490000Y-9938334D02*
X12610000Y-10058334D01*
X12610000Y-9938334D02*
X12490000Y-10058334D01*
X12490000Y-10191667D02*
X12610000Y-10311667D01*
X12610000Y-10191667D02*
X12490000Y-10311667D01*
X12490000Y-10445001D02*
X12610000Y-10565001D01*
X12610000Y-10445001D02*
X12490000Y-10565001D01*
X12490000Y-10695000D02*
X12610000Y-10815000D01*
X12610000Y-10695000D02*
X12490000Y-10815000D01*
X12490000Y-10951666D02*
X12610000Y-11071666D01*
X12610000Y-10951666D02*
X12490000Y-11071666D01*
X12490000Y-11205000D02*
X12610000Y-11325000D01*
X12610000Y-11205000D02*
X12490000Y-11325000D01*
X12490000Y-11458333D02*
X12610000Y-11578333D01*
X12610000Y-11458333D02*
X12490000Y-11578333D01*
X12490000Y-11711666D02*
X12610000Y-11831666D01*
X12610000Y-11711666D02*
X12490000Y-11831666D01*
X12490000Y-11965000D02*
X12610000Y-12085000D01*
X12610000Y-11965000D02*
X12490000Y-12085000D01*
X12490000Y-12218333D02*
X12610000Y-12338333D01*
X12610000Y-12218333D02*
X12490000Y-12338333D01*
X15040000Y-8670000D02*
X15160000Y-8790000D01*
X15160000Y-8670000D02*
X15040000Y-8790000D01*
X15040000Y-8918333D02*
X15160000Y-9038333D01*
X15160000Y-8918333D02*
X15040000Y-9038333D01*
X15040000Y-9171667D02*
X15160000Y-9291667D01*
X15160000Y-9171667D02*
X15040000Y-9291667D01*
X15040000Y-9425000D02*
X15160000Y-9545000D01*
X15160000Y-9425000D02*
X15040000Y-9545000D01*
X15040000Y-9678334D02*
X15160000Y-9798334D01*
X15160000Y-9678334D02*
X15040000Y-9798334D01*
X15040000Y-9931667D02*
X15160000Y-10051667D01*
X15160000Y-9931667D02*
X15040000Y-10051667D01*
X15040000Y-10185000D02*
X15160000Y-10305000D01*
X15160000Y-10185000D02*
X15040000Y-10305000D01*
X15040000Y-10445000D02*
X15160000Y-10565000D01*
X15160000Y-10445000D02*
X15040000Y-10565000D01*
X15040000Y-10695000D02*
X15160000Y-10815000D01*
X15160000Y-10695000D02*
X15040000Y-10815000D01*
X15040000Y-10945000D02*
X15160000Y-11065000D01*
X15160000Y-10945000D02*
X15040000Y-11065000D01*
X15040000Y-11198333D02*
X15160000Y-11318333D01*
X15160000Y-11198333D02*
X15040000Y-11318333D01*
X15040000Y-11451666D02*
X15160000Y-11571666D01*
X15160000Y-11451666D02*
X15040000Y-11571666D01*
X15040000Y-11705000D02*
X15160000Y-11825000D01*
X15160000Y-11705000D02*
X15040000Y-11825000D01*
X15040000Y-11958333D02*
X15160000Y-12078333D01*
X15160000Y-11958333D02*
X15040000Y-12078333D01*
X15040000Y-12211666D02*
X15160000Y-12331666D01*
X15160000Y-12211666D02*
X15040000Y-12331666D01*
X15765000Y-7890000D02*
X15885000Y-8010000D01*
X15885000Y-7890000D02*
X15765000Y-8010000D01*
X15765000Y-8240000D02*
X15885000Y-8360000D01*
X15885000Y-8240000D02*
X15765000Y-8360000D01*
X16490000Y-10390000D02*
X16610000Y-10510000D01*
X16610000Y-10390000D02*
X16490000Y-10510000D01*
X16490000Y-10990000D02*
X16610000Y-11110000D01*
X16610000Y-10990000D02*
X16490000Y-11110000D01*
X16490000Y-11590000D02*
X16610000Y-11710000D01*
X16610000Y-11590000D02*
X16490000Y-11710000D01*
X16590000Y-7845000D02*
X16710000Y-7965000D01*
X16710000Y-7845000D02*
X16590000Y-7965000D01*
X16590000Y-12740000D02*
X16710000Y-12860000D01*
X16710000Y-12740000D02*
X16590000Y-12860000D01*
X16840000Y-7845000D02*
X16960000Y-7965000D01*
X16960000Y-7845000D02*
X16840000Y-7965000D01*
X17090000Y-7845000D02*
X17210000Y-7965000D01*
X17210000Y-7845000D02*
X17090000Y-7965000D01*
X17340000Y-7845000D02*
X17460000Y-7965000D01*
X17460000Y-7845000D02*
X17340000Y-7965000D01*
X17390000Y-12740000D02*
X17510000Y-12860000D01*
X17510000Y-12740000D02*
X17390000Y-12860000D01*
X17490000Y-10390000D02*
X17610000Y-10510000D01*
X17610000Y-10390000D02*
X17490000Y-10510000D01*
X17490000Y-10990000D02*
X17610000Y-11110000D01*
X17610000Y-10990000D02*
X17490000Y-11110000D01*
X17490000Y-11590000D02*
X17610000Y-11710000D01*
X17610000Y-11590000D02*
X17490000Y-11710000D01*
X18490000Y-10540000D02*
X18610000Y-10660000D01*
X18610000Y-10540000D02*
X18490000Y-10660000D01*
X18490000Y-10840000D02*
X18610000Y-10960000D01*
X18610000Y-10840000D02*
X18490000Y-10960000D01*
X18490000Y-11140000D02*
X18610000Y-11260000D01*
X18610000Y-11140000D02*
X18490000Y-11260000D01*
X18490000Y-11390000D02*
X18610000Y-11510000D01*
X18610000Y-11390000D02*
X18490000Y-11510000D01*
D11*
X8658277Y-14363984D02*
X8658277Y-14163984D01*
X8658277Y-14163984D02*
X8705896Y-14163984D01*
X8705896Y-14163984D02*
X8734467Y-14173508D01*
X8734467Y-14173508D02*
X8753515Y-14192555D01*
X8753515Y-14192555D02*
X8763039Y-14211603D01*
X8763039Y-14211603D02*
X8772563Y-14249698D01*
X8772563Y-14249698D02*
X8772563Y-14278269D01*
X8772563Y-14278269D02*
X8763039Y-14316365D01*
X8763039Y-14316365D02*
X8753515Y-14335412D01*
X8753515Y-14335412D02*
X8734467Y-14354460D01*
X8734467Y-14354460D02*
X8705896Y-14363984D01*
X8705896Y-14363984D02*
X8658277Y-14363984D01*
X8858277Y-14363984D02*
X8858277Y-14230650D01*
X8858277Y-14268746D02*
X8867801Y-14249698D01*
X8867801Y-14249698D02*
X8877324Y-14240174D01*
X8877324Y-14240174D02*
X8896372Y-14230650D01*
X8896372Y-14230650D02*
X8915420Y-14230650D01*
X8982086Y-14363984D02*
X8982086Y-14230650D01*
X8982086Y-14163984D02*
X8972563Y-14173508D01*
X8972563Y-14173508D02*
X8982086Y-14183031D01*
X8982086Y-14183031D02*
X8991610Y-14173508D01*
X8991610Y-14173508D02*
X8982086Y-14163984D01*
X8982086Y-14163984D02*
X8982086Y-14183031D01*
X9105896Y-14363984D02*
X9086848Y-14354460D01*
X9086848Y-14354460D02*
X9077324Y-14335412D01*
X9077324Y-14335412D02*
X9077324Y-14163984D01*
X9210658Y-14363984D02*
X9191610Y-14354460D01*
X9191610Y-14354460D02*
X9182086Y-14335412D01*
X9182086Y-14335412D02*
X9182086Y-14163984D01*
X9439229Y-14363984D02*
X9439229Y-14163984D01*
X9439229Y-14163984D02*
X9505896Y-14306841D01*
X9505896Y-14306841D02*
X9572563Y-14163984D01*
X9572563Y-14163984D02*
X9572563Y-14363984D01*
X9753515Y-14363984D02*
X9753515Y-14259222D01*
X9753515Y-14259222D02*
X9743991Y-14240174D01*
X9743991Y-14240174D02*
X9724944Y-14230650D01*
X9724944Y-14230650D02*
X9686848Y-14230650D01*
X9686848Y-14230650D02*
X9667801Y-14240174D01*
X9753515Y-14354460D02*
X9734467Y-14363984D01*
X9734467Y-14363984D02*
X9686848Y-14363984D01*
X9686848Y-14363984D02*
X9667801Y-14354460D01*
X9667801Y-14354460D02*
X9658277Y-14335412D01*
X9658277Y-14335412D02*
X9658277Y-14316365D01*
X9658277Y-14316365D02*
X9667801Y-14297317D01*
X9667801Y-14297317D02*
X9686848Y-14287793D01*
X9686848Y-14287793D02*
X9734467Y-14287793D01*
X9734467Y-14287793D02*
X9753515Y-14278269D01*
X9848753Y-14230650D02*
X9848753Y-14430650D01*
X9848753Y-14240174D02*
X9867801Y-14230650D01*
X9867801Y-14230650D02*
X9905896Y-14230650D01*
X9905896Y-14230650D02*
X9924944Y-14240174D01*
X9924944Y-14240174D02*
X9934467Y-14249698D01*
X9934467Y-14249698D02*
X9943991Y-14268746D01*
X9943991Y-14268746D02*
X9943991Y-14325888D01*
X9943991Y-14325888D02*
X9934467Y-14344936D01*
X9934467Y-14344936D02*
X9924944Y-14354460D01*
X9924944Y-14354460D02*
X9905896Y-14363984D01*
X9905896Y-14363984D02*
X9867801Y-14363984D01*
X9867801Y-14363984D02*
X9848753Y-14354460D01*
X10029705Y-14344936D02*
X10039229Y-14354460D01*
X10039229Y-14354460D02*
X10029705Y-14363984D01*
X10029705Y-14363984D02*
X10020182Y-14354460D01*
X10020182Y-14354460D02*
X10029705Y-14344936D01*
X10029705Y-14344936D02*
X10029705Y-14363984D01*
X10029705Y-14240174D02*
X10039229Y-14249698D01*
X10039229Y-14249698D02*
X10029705Y-14259222D01*
X10029705Y-14259222D02*
X10020182Y-14249698D01*
X10020182Y-14249698D02*
X10029705Y-14240174D01*
X10029705Y-14240174D02*
X10029705Y-14259222D01*
D12*
X8277500Y-14632500D02*
X8397500Y-14752500D01*
X8397500Y-14632500D02*
X8277500Y-14752500D01*
D11*
X8763039Y-14783984D02*
X8648753Y-14783984D01*
X8705896Y-14783984D02*
X8705896Y-14583984D01*
X8705896Y-14583984D02*
X8686848Y-14612555D01*
X8686848Y-14612555D02*
X8667801Y-14631603D01*
X8667801Y-14631603D02*
X8648753Y-14641127D01*
X8848753Y-14764936D02*
X8858277Y-14774460D01*
X8858277Y-14774460D02*
X8848753Y-14783984D01*
X8848753Y-14783984D02*
X8839229Y-14774460D01*
X8839229Y-14774460D02*
X8848753Y-14764936D01*
X8848753Y-14764936D02*
X8848753Y-14783984D01*
X8934467Y-14603031D02*
X8943991Y-14593508D01*
X8943991Y-14593508D02*
X8963039Y-14583984D01*
X8963039Y-14583984D02*
X9010658Y-14583984D01*
X9010658Y-14583984D02*
X9029705Y-14593508D01*
X9029705Y-14593508D02*
X9039229Y-14603031D01*
X9039229Y-14603031D02*
X9048753Y-14622079D01*
X9048753Y-14622079D02*
X9048753Y-14641127D01*
X9048753Y-14641127D02*
X9039229Y-14669698D01*
X9039229Y-14669698D02*
X8924944Y-14783984D01*
X8924944Y-14783984D02*
X9048753Y-14783984D01*
X9172563Y-14583984D02*
X9191610Y-14583984D01*
X9191610Y-14583984D02*
X9210658Y-14593508D01*
X9210658Y-14593508D02*
X9220182Y-14603031D01*
X9220182Y-14603031D02*
X9229705Y-14622079D01*
X9229705Y-14622079D02*
X9239229Y-14660174D01*
X9239229Y-14660174D02*
X9239229Y-14707793D01*
X9239229Y-14707793D02*
X9229705Y-14745888D01*
X9229705Y-14745888D02*
X9220182Y-14764936D01*
X9220182Y-14764936D02*
X9210658Y-14774460D01*
X9210658Y-14774460D02*
X9191610Y-14783984D01*
X9191610Y-14783984D02*
X9172563Y-14783984D01*
X9172563Y-14783984D02*
X9153515Y-14774460D01*
X9153515Y-14774460D02*
X9143991Y-14764936D01*
X9143991Y-14764936D02*
X9134467Y-14745888D01*
X9134467Y-14745888D02*
X9124944Y-14707793D01*
X9124944Y-14707793D02*
X9124944Y-14660174D01*
X9124944Y-14660174D02*
X9134467Y-14622079D01*
X9134467Y-14622079D02*
X9143991Y-14603031D01*
X9143991Y-14603031D02*
X9153515Y-14593508D01*
X9153515Y-14593508D02*
X9172563Y-14583984D01*
X9363039Y-14583984D02*
X9382086Y-14583984D01*
X9382086Y-14583984D02*
X9401134Y-14593508D01*
X9401134Y-14593508D02*
X9410658Y-14603031D01*
X9410658Y-14603031D02*
X9420182Y-14622079D01*
X9420182Y-14622079D02*
X9429705Y-14660174D01*
X9429705Y-14660174D02*
X9429705Y-14707793D01*
X9429705Y-14707793D02*
X9420182Y-14745888D01*
X9420182Y-14745888D02*
X9410658Y-14764936D01*
X9410658Y-14764936D02*
X9401134Y-14774460D01*
X9401134Y-14774460D02*
X9382086Y-14783984D01*
X9382086Y-14783984D02*
X9363039Y-14783984D01*
X9363039Y-14783984D02*
X9343991Y-14774460D01*
X9343991Y-14774460D02*
X9334467Y-14764936D01*
X9334467Y-14764936D02*
X9324944Y-14745888D01*
X9324944Y-14745888D02*
X9315420Y-14707793D01*
X9315420Y-14707793D02*
X9315420Y-14660174D01*
X9315420Y-14660174D02*
X9324944Y-14622079D01*
X9324944Y-14622079D02*
X9334467Y-14603031D01*
X9334467Y-14603031D02*
X9343991Y-14593508D01*
X9343991Y-14593508D02*
X9363039Y-14583984D01*
X9515420Y-14783984D02*
X9515420Y-14650650D01*
X9515420Y-14669698D02*
X9524944Y-14660174D01*
X9524944Y-14660174D02*
X9543991Y-14650650D01*
X9543991Y-14650650D02*
X9572563Y-14650650D01*
X9572563Y-14650650D02*
X9591610Y-14660174D01*
X9591610Y-14660174D02*
X9601134Y-14679222D01*
X9601134Y-14679222D02*
X9601134Y-14783984D01*
X9601134Y-14679222D02*
X9610658Y-14660174D01*
X9610658Y-14660174D02*
X9629705Y-14650650D01*
X9629705Y-14650650D02*
X9658277Y-14650650D01*
X9658277Y-14650650D02*
X9677325Y-14660174D01*
X9677325Y-14660174D02*
X9686848Y-14679222D01*
X9686848Y-14679222D02*
X9686848Y-14783984D01*
X9782086Y-14783984D02*
X9782086Y-14650650D01*
X9782086Y-14669698D02*
X9791610Y-14660174D01*
X9791610Y-14660174D02*
X9810658Y-14650650D01*
X9810658Y-14650650D02*
X9839229Y-14650650D01*
X9839229Y-14650650D02*
X9858277Y-14660174D01*
X9858277Y-14660174D02*
X9867801Y-14679222D01*
X9867801Y-14679222D02*
X9867801Y-14783984D01*
X9867801Y-14679222D02*
X9877325Y-14660174D01*
X9877325Y-14660174D02*
X9896372Y-14650650D01*
X9896372Y-14650650D02*
X9924944Y-14650650D01*
X9924944Y-14650650D02*
X9943991Y-14660174D01*
X9943991Y-14660174D02*
X9953515Y-14679222D01*
X9953515Y-14679222D02*
X9953515Y-14783984D01*
X10343991Y-14574460D02*
X10172563Y-14831603D01*
X10601134Y-14583984D02*
X10620182Y-14583984D01*
X10620182Y-14583984D02*
X10639229Y-14593508D01*
X10639229Y-14593508D02*
X10648753Y-14603031D01*
X10648753Y-14603031D02*
X10658277Y-14622079D01*
X10658277Y-14622079D02*
X10667801Y-14660174D01*
X10667801Y-14660174D02*
X10667801Y-14707793D01*
X10667801Y-14707793D02*
X10658277Y-14745888D01*
X10658277Y-14745888D02*
X10648753Y-14764936D01*
X10648753Y-14764936D02*
X10639229Y-14774460D01*
X10639229Y-14774460D02*
X10620182Y-14783984D01*
X10620182Y-14783984D02*
X10601134Y-14783984D01*
X10601134Y-14783984D02*
X10582087Y-14774460D01*
X10582087Y-14774460D02*
X10572563Y-14764936D01*
X10572563Y-14764936D02*
X10563039Y-14745888D01*
X10563039Y-14745888D02*
X10553515Y-14707793D01*
X10553515Y-14707793D02*
X10553515Y-14660174D01*
X10553515Y-14660174D02*
X10563039Y-14622079D01*
X10563039Y-14622079D02*
X10572563Y-14603031D01*
X10572563Y-14603031D02*
X10582087Y-14593508D01*
X10582087Y-14593508D02*
X10601134Y-14583984D01*
X10753515Y-14764936D02*
X10763039Y-14774460D01*
X10763039Y-14774460D02*
X10753515Y-14783984D01*
X10753515Y-14783984D02*
X10743991Y-14774460D01*
X10743991Y-14774460D02*
X10753515Y-14764936D01*
X10753515Y-14764936D02*
X10753515Y-14783984D01*
X10886848Y-14583984D02*
X10905896Y-14583984D01*
X10905896Y-14583984D02*
X10924944Y-14593508D01*
X10924944Y-14593508D02*
X10934468Y-14603031D01*
X10934468Y-14603031D02*
X10943991Y-14622079D01*
X10943991Y-14622079D02*
X10953515Y-14660174D01*
X10953515Y-14660174D02*
X10953515Y-14707793D01*
X10953515Y-14707793D02*
X10943991Y-14745888D01*
X10943991Y-14745888D02*
X10934468Y-14764936D01*
X10934468Y-14764936D02*
X10924944Y-14774460D01*
X10924944Y-14774460D02*
X10905896Y-14783984D01*
X10905896Y-14783984D02*
X10886848Y-14783984D01*
X10886848Y-14783984D02*
X10867801Y-14774460D01*
X10867801Y-14774460D02*
X10858277Y-14764936D01*
X10858277Y-14764936D02*
X10848753Y-14745888D01*
X10848753Y-14745888D02*
X10839229Y-14707793D01*
X10839229Y-14707793D02*
X10839229Y-14660174D01*
X10839229Y-14660174D02*
X10848753Y-14622079D01*
X10848753Y-14622079D02*
X10858277Y-14603031D01*
X10858277Y-14603031D02*
X10867801Y-14593508D01*
X10867801Y-14593508D02*
X10886848Y-14583984D01*
X11124944Y-14650650D02*
X11124944Y-14783984D01*
X11077325Y-14574460D02*
X11029706Y-14717317D01*
X11029706Y-14717317D02*
X11153515Y-14717317D01*
X11210658Y-14583984D02*
X11343991Y-14583984D01*
X11343991Y-14583984D02*
X11258277Y-14783984D01*
X11410658Y-14603031D02*
X11420182Y-14593508D01*
X11420182Y-14593508D02*
X11439229Y-14583984D01*
X11439229Y-14583984D02*
X11486848Y-14583984D01*
X11486848Y-14583984D02*
X11505896Y-14593508D01*
X11505896Y-14593508D02*
X11515420Y-14603031D01*
X11515420Y-14603031D02*
X11524944Y-14622079D01*
X11524944Y-14622079D02*
X11524944Y-14641127D01*
X11524944Y-14641127D02*
X11515420Y-14669698D01*
X11515420Y-14669698D02*
X11401134Y-14783984D01*
X11401134Y-14783984D02*
X11524944Y-14783984D01*
X11601134Y-14583984D02*
X11601134Y-14622079D01*
X11677325Y-14583984D02*
X11677325Y-14622079D01*
X11972563Y-14860174D02*
X11963039Y-14850650D01*
X11963039Y-14850650D02*
X11943991Y-14822079D01*
X11943991Y-14822079D02*
X11934468Y-14803031D01*
X11934468Y-14803031D02*
X11924944Y-14774460D01*
X11924944Y-14774460D02*
X11915420Y-14726841D01*
X11915420Y-14726841D02*
X11915420Y-14688746D01*
X11915420Y-14688746D02*
X11924944Y-14641127D01*
X11924944Y-14641127D02*
X11934468Y-14612555D01*
X11934468Y-14612555D02*
X11943991Y-14593508D01*
X11943991Y-14593508D02*
X11963039Y-14564936D01*
X11963039Y-14564936D02*
X11972563Y-14555412D01*
X12029706Y-14583984D02*
X12163039Y-14583984D01*
X12163039Y-14583984D02*
X12077325Y-14783984D01*
X12277325Y-14583984D02*
X12296372Y-14583984D01*
X12296372Y-14583984D02*
X12315420Y-14593508D01*
X12315420Y-14593508D02*
X12324944Y-14603031D01*
X12324944Y-14603031D02*
X12334468Y-14622079D01*
X12334468Y-14622079D02*
X12343991Y-14660174D01*
X12343991Y-14660174D02*
X12343991Y-14707793D01*
X12343991Y-14707793D02*
X12334468Y-14745888D01*
X12334468Y-14745888D02*
X12324944Y-14764936D01*
X12324944Y-14764936D02*
X12315420Y-14774460D01*
X12315420Y-14774460D02*
X12296372Y-14783984D01*
X12296372Y-14783984D02*
X12277325Y-14783984D01*
X12277325Y-14783984D02*
X12258277Y-14774460D01*
X12258277Y-14774460D02*
X12248753Y-14764936D01*
X12248753Y-14764936D02*
X12239229Y-14745888D01*
X12239229Y-14745888D02*
X12229706Y-14707793D01*
X12229706Y-14707793D02*
X12229706Y-14660174D01*
X12229706Y-14660174D02*
X12239229Y-14622079D01*
X12239229Y-14622079D02*
X12248753Y-14603031D01*
X12248753Y-14603031D02*
X12258277Y-14593508D01*
X12258277Y-14593508D02*
X12277325Y-14583984D01*
X12582087Y-14783984D02*
X12582087Y-14583984D01*
X12667801Y-14783984D02*
X12667801Y-14679222D01*
X12667801Y-14679222D02*
X12658277Y-14660174D01*
X12658277Y-14660174D02*
X12639230Y-14650650D01*
X12639230Y-14650650D02*
X12610658Y-14650650D01*
X12610658Y-14650650D02*
X12591610Y-14660174D01*
X12591610Y-14660174D02*
X12582087Y-14669698D01*
X12791610Y-14783984D02*
X12772563Y-14774460D01*
X12772563Y-14774460D02*
X12763039Y-14764936D01*
X12763039Y-14764936D02*
X12753515Y-14745888D01*
X12753515Y-14745888D02*
X12753515Y-14688746D01*
X12753515Y-14688746D02*
X12763039Y-14669698D01*
X12763039Y-14669698D02*
X12772563Y-14660174D01*
X12772563Y-14660174D02*
X12791610Y-14650650D01*
X12791610Y-14650650D02*
X12820182Y-14650650D01*
X12820182Y-14650650D02*
X12839230Y-14660174D01*
X12839230Y-14660174D02*
X12848753Y-14669698D01*
X12848753Y-14669698D02*
X12858277Y-14688746D01*
X12858277Y-14688746D02*
X12858277Y-14745888D01*
X12858277Y-14745888D02*
X12848753Y-14764936D01*
X12848753Y-14764936D02*
X12839230Y-14774460D01*
X12839230Y-14774460D02*
X12820182Y-14783984D01*
X12820182Y-14783984D02*
X12791610Y-14783984D01*
X12972563Y-14783984D02*
X12953515Y-14774460D01*
X12953515Y-14774460D02*
X12943991Y-14755412D01*
X12943991Y-14755412D02*
X12943991Y-14583984D01*
X13124944Y-14774460D02*
X13105896Y-14783984D01*
X13105896Y-14783984D02*
X13067801Y-14783984D01*
X13067801Y-14783984D02*
X13048753Y-14774460D01*
X13048753Y-14774460D02*
X13039230Y-14755412D01*
X13039230Y-14755412D02*
X13039230Y-14679222D01*
X13039230Y-14679222D02*
X13048753Y-14660174D01*
X13048753Y-14660174D02*
X13067801Y-14650650D01*
X13067801Y-14650650D02*
X13105896Y-14650650D01*
X13105896Y-14650650D02*
X13124944Y-14660174D01*
X13124944Y-14660174D02*
X13134468Y-14679222D01*
X13134468Y-14679222D02*
X13134468Y-14698269D01*
X13134468Y-14698269D02*
X13039230Y-14717317D01*
X13210658Y-14774460D02*
X13229706Y-14783984D01*
X13229706Y-14783984D02*
X13267801Y-14783984D01*
X13267801Y-14783984D02*
X13286849Y-14774460D01*
X13286849Y-14774460D02*
X13296372Y-14755412D01*
X13296372Y-14755412D02*
X13296372Y-14745888D01*
X13296372Y-14745888D02*
X13286849Y-14726841D01*
X13286849Y-14726841D02*
X13267801Y-14717317D01*
X13267801Y-14717317D02*
X13239230Y-14717317D01*
X13239230Y-14717317D02*
X13220182Y-14707793D01*
X13220182Y-14707793D02*
X13210658Y-14688746D01*
X13210658Y-14688746D02*
X13210658Y-14679222D01*
X13210658Y-14679222D02*
X13220182Y-14660174D01*
X13220182Y-14660174D02*
X13239230Y-14650650D01*
X13239230Y-14650650D02*
X13267801Y-14650650D01*
X13267801Y-14650650D02*
X13286849Y-14660174D01*
X13363039Y-14860174D02*
X13372563Y-14850650D01*
X13372563Y-14850650D02*
X13391611Y-14822079D01*
X13391611Y-14822079D02*
X13401134Y-14803031D01*
X13401134Y-14803031D02*
X13410658Y-14774460D01*
X13410658Y-14774460D02*
X13420182Y-14726841D01*
X13420182Y-14726841D02*
X13420182Y-14688746D01*
X13420182Y-14688746D02*
X13410658Y-14641127D01*
X13410658Y-14641127D02*
X13401134Y-14612555D01*
X13401134Y-14612555D02*
X13391611Y-14593508D01*
X13391611Y-14593508D02*
X13372563Y-14564936D01*
X13372563Y-14564936D02*
X13363039Y-14555412D01*
M02*
