M48
; DRILL file {KiCad 9.0.6} date 2025-12-05T19:45:49-0500
; FORMAT={-:-/ absolute / metric / decimal}
; #@! TF.CreationDate,2025-12-05T19:45:49-05:00
; #@! TF.GenerationSoftware,Kicad,Pcbnew,9.0.6
; #@! TF.FileFunction,Plated,1,2,PTH
FMAT,2
METRIC
; #@! TA.AperFunction,Plated,PTH,ComponentDrill
T1C1.200
%
G90
G05
T1
X97.75Y-87.5
X97.75Y-90.0
X97.75Y-92.5
X97.75Y-95.0
X97.75Y-97.5
X97.75Y-100.0
X100.75Y-116.25
X101.0Y-108.0
X106.25Y-105.0
X106.25Y-111.0
X106.25Y-113.25
X106.25Y-119.25
X108.25Y-108.0
X108.25Y-116.25
X111.5Y-109.0
X111.5Y-115.0
X119.25Y-95.5
X119.25Y-99.5
X119.25Y-103.5
X119.5Y-84.0
X121.5Y-109.0
X121.5Y-115.0
X125.5Y-87.317
X125.5Y-89.85
X125.5Y-92.383
X125.5Y-94.917
X125.5Y-97.45
X125.5Y-99.983
X125.5Y-102.517
X125.5Y-105.05
X125.5Y-107.55
X125.5Y-110.117
X125.5Y-112.65
X125.5Y-115.183
X125.5Y-117.717
X125.5Y-120.25
X125.5Y-122.783
X151.0Y-87.3
X151.0Y-89.783
X151.0Y-92.317
X151.0Y-94.85
X151.0Y-97.383
X151.0Y-99.917
X151.0Y-102.45
X151.0Y-105.05
X151.0Y-107.55
X151.0Y-110.05
X151.0Y-112.583
X151.0Y-115.117
X151.0Y-117.65
X151.0Y-120.183
X151.0Y-122.717
X158.25Y-79.5
X158.25Y-83.0
X165.5Y-104.5
X165.5Y-110.5
X165.5Y-116.5
X166.5Y-79.05
X166.5Y-128.0
X169.0Y-79.05
X171.5Y-79.05
X174.0Y-79.05
X174.5Y-128.0
X175.5Y-104.5
X175.5Y-110.5
X175.5Y-116.5
X185.5Y-106.0
X185.5Y-109.0
X185.5Y-112.0
X185.5Y-114.5
M30
